<mxfile host="Electron" modified="2023-07-17T13:35:06.883Z" agent="Mozilla/5.0 (Windows NT 6.1; Win64; x64) AppleWebKit/537.36 (KHTML, like Gecko) draw.io/21.1.2 Chrome/106.0.5249.199 Electron/21.4.3 Safari/537.36" etag="yfOLARtm1EPjmQSqbLeS" version="21.1.2" type="device">
  <diagram name="ページ1" id="mtlcL68E5AI3Iho4TW-G">
    <mxGraphModel dx="1418" dy="775" grid="1" gridSize="10" guides="1" tooltips="1" connect="1" arrows="1" fold="1" page="1" pageScale="1" pageWidth="1169" pageHeight="827" math="0" shadow="0">
      <root>
        <mxCell id="0" />
        <mxCell id="1" parent="0" />
        <mxCell id="FA3oHlo-k9jTL-22j6KL-1" value="&lt;div&gt;override var outputImage : CIImage? {&lt;/div&gt;&lt;div&gt;&amp;nbsp; &amp;nbsp; guard let inputImage = inputImage else { return nil }&lt;/div&gt;&lt;div&gt;&amp;nbsp; &amp;nbsp; guard let inputImageBg = inputImageBg else { return nil }&lt;/div&gt;&lt;div&gt;&amp;nbsp; &amp;nbsp; return kernel.apply(&lt;/div&gt;&lt;div&gt;&amp;nbsp; &amp;nbsp; &amp;nbsp; &amp;nbsp; &amp;nbsp; &amp;nbsp; foreground: &lt;b&gt;&lt;font color=&quot;#cc0000&quot;&gt;inputImage&lt;/font&gt;&lt;/b&gt;,&lt;/div&gt;&lt;div&gt;&amp;nbsp; &amp;nbsp; &amp;nbsp; &amp;nbsp; &amp;nbsp; &amp;nbsp; background: &lt;font color=&quot;#cc0000&quot;&gt;&lt;b&gt;inputImageBg&lt;/b&gt;&lt;/font&gt;&lt;/div&gt;&lt;div&gt;&amp;nbsp; &amp;nbsp; &amp;nbsp; &amp;nbsp; )&lt;/div&gt;&lt;div&gt;}&lt;/div&gt;" style="rounded=0;whiteSpace=wrap;html=1;align=left;fontSize=16;fontFamily=Courier New;verticalAlign=top;spacingLeft=10;spacingTop=10;dashed=1;" vertex="1" parent="1">
          <mxGeometry x="40" width="640" height="200" as="geometry" />
        </mxCell>
        <mxCell id="FA3oHlo-k9jTL-22j6KL-2" value="&lt;div style=&quot;&quot;&gt;&lt;div style=&quot;&quot;&gt;&lt;div&gt;#include &amp;lt;CoreImage/CoreImage.h&amp;gt;&lt;/div&gt;&lt;div&gt;&lt;br&gt;&lt;/div&gt;&lt;div&gt;extern &quot;C&quot; {&lt;/div&gt;&lt;div&gt;&amp;nbsp; &amp;nbsp; namespace coreimage {&lt;/div&gt;&lt;div&gt;&lt;br&gt;&lt;/div&gt;&lt;div&gt;&amp;nbsp; &amp;nbsp; &amp;nbsp; &amp;nbsp; float4 blend(&lt;b&gt;&lt;font color=&quot;#cc0000&quot;&gt;sample_t foreground&lt;/font&gt;&lt;/b&gt;, &lt;b&gt;&lt;font color=&quot;#cc0000&quot;&gt;sample_t background&lt;/font&gt;&lt;/b&gt;) {&lt;/div&gt;&lt;div&gt;&amp;nbsp; &amp;nbsp; &amp;nbsp; &amp;nbsp; &amp;nbsp; &amp;nbsp; return (foreground + background) / 2.0;&lt;/div&gt;&lt;div&gt;&amp;nbsp; &amp;nbsp; &amp;nbsp; &amp;nbsp; }&lt;/div&gt;&lt;div&gt;&amp;nbsp; &amp;nbsp; }&lt;/div&gt;&lt;div&gt;}&lt;/div&gt;&lt;/div&gt;&lt;/div&gt;" style="rounded=0;whiteSpace=wrap;html=1;align=left;horizontal=1;verticalAlign=top;fontSize=16;fontFamily=Courier New;spacingLeft=10;spacingTop=10;dashed=1;" vertex="1" parent="1">
          <mxGeometry x="40" y="240" width="640" height="240" as="geometry" />
        </mxCell>
        <mxCell id="FA3oHlo-k9jTL-22j6KL-3" style="edgeStyle=orthogonalEdgeStyle;rounded=0;orthogonalLoop=1;jettySize=auto;html=1;entryX=0.5;entryY=0;entryDx=0;entryDy=0;curved=1;" edge="1" parent="1" source="FA3oHlo-k9jTL-22j6KL-4" target="FA3oHlo-k9jTL-22j6KL-5">
          <mxGeometry relative="1" as="geometry" />
        </mxCell>
        <mxCell id="FA3oHlo-k9jTL-22j6KL-4" value="" style="rounded=0;whiteSpace=wrap;html=1;strokeColor=none;fillColor=none;" vertex="1" parent="1">
          <mxGeometry x="386" y="112" width="20" height="20" as="geometry" />
        </mxCell>
        <mxCell id="FA3oHlo-k9jTL-22j6KL-5" value="" style="rounded=0;whiteSpace=wrap;html=1;strokeColor=none;fillColor=none;" vertex="1" parent="1">
          <mxGeometry x="570" y="350" width="20" height="20" as="geometry" />
        </mxCell>
        <mxCell id="FA3oHlo-k9jTL-22j6KL-6" value="Metal" style="rounded=1;whiteSpace=wrap;html=1;fontStyle=1;fontSize=18;fillColor=#647687;fontColor=#ffffff;strokeColor=#314354;" vertex="1" parent="1">
          <mxGeometry x="570" y="250" width="100" height="30" as="geometry" />
        </mxCell>
        <mxCell id="FA3oHlo-k9jTL-22j6KL-7" value="" style="rounded=0;whiteSpace=wrap;html=1;fillColor=none;strokeColor=none;" vertex="1" parent="1">
          <mxGeometry width="40" height="40" as="geometry" />
        </mxCell>
        <mxCell id="FA3oHlo-k9jTL-22j6KL-8" value="" style="rounded=0;whiteSpace=wrap;html=1;fillColor=none;strokeColor=none;" vertex="1" parent="1">
          <mxGeometry x="960" width="40" height="40" as="geometry" />
        </mxCell>
        <mxCell id="FA3oHlo-k9jTL-22j6KL-9" style="edgeStyle=orthogonalEdgeStyle;rounded=0;orthogonalLoop=1;jettySize=auto;html=1;entryX=0.5;entryY=0;entryDx=0;entryDy=0;curved=1;" edge="1" parent="1" source="FA3oHlo-k9jTL-22j6KL-10" target="FA3oHlo-k9jTL-22j6KL-11">
          <mxGeometry relative="1" as="geometry">
            <Array as="points">
              <mxPoint x="470" y="100" />
              <mxPoint x="470" y="290" />
              <mxPoint x="394" y="290" />
            </Array>
          </mxGeometry>
        </mxCell>
        <mxCell id="FA3oHlo-k9jTL-22j6KL-10" value="" style="rounded=0;whiteSpace=wrap;html=1;strokeColor=none;fillColor=none;" vertex="1" parent="1">
          <mxGeometry x="374" y="95" width="20" height="20" as="geometry" />
        </mxCell>
        <mxCell id="FA3oHlo-k9jTL-22j6KL-11" value="" style="rounded=0;whiteSpace=wrap;html=1;strokeColor=none;fillColor=none;" vertex="1" parent="1">
          <mxGeometry x="384" y="350" width="20" height="20" as="geometry" />
        </mxCell>
      </root>
    </mxGraphModel>
  </diagram>
</mxfile>
